<?xml version="1.0" standalone="no"?>
<!DOCTYPE svg PUBLIC "-//W3C//DTD SVG 20010904//EN"
 "http://www.w3.org/TR/2001/REC-SVG-20010904/DTD/svg10.dtd">
<svg version="1.0" xmlns="http://www.w3.org/2000/svg"
 width="360.000000pt" height="360.000000pt" viewBox="0 0 360.000000 360.000000"
 preserveAspectRatio="xMidYMid meet">
<metadata>
Created by potrace 1.14, written by Peter Selinger 2001-2017
</metadata>
<g transform="translate(0.000000,360.000000) scale(0.100000,-0.100000)"
fill="#000000" stroke="none">
<path d="M1070 3057 l-715 -413 0 -844 0 -844 715 -413 c393 -227 722 -413
730 -413 8 0 337 186 730 413 l715 413 0 844 0 844 -715 413 c-393 227 -722
413 -730 413 -8 0 -337 -186 -730 -413z m1390 -67 c570 -329 648 -377 632
-388 -9 -7 -146 -87 -303 -178 l-286 -164 -346 200 c-191 110 -351 200 -357
200 -6 0 -166 -90 -357 -200 l-346 -200 -288 166 c-158 91 -294 171 -303 177
-13 10 92 74 637 389 358 207 655 376 659 375 4 -1 300 -171 658 -377z m-1665
-663 l250 -145 5 -408 5 -409 347 -200 347 -200 1 -353 0 -353 -58 33 c-32 18
-327 188 -655 378 l-597 345 0 758 0 758 53 -30 c28 -16 165 -95 302 -174z
m1383 13 l282 -163 0 -348 c0 -192 -3 -349 -6 -349 -4 0 -141 78 -305 172
l-299 173 0 353 0 354 23 -14 c12 -8 149 -88 305 -178z m-70 -771 c163 -95
298 -172 299 -173 2 -2 -134 -82 -302 -179 l-305 -176 -305 177 c-284 164
-304 177 -283 189 13 6 147 84 298 172 151 88 281 160 288 160 7 1 147 -76
310 -170z"/>
</g>
</svg>
